<?xml version="1.0" standalone="no"?>
<!DOCTYPE svg PUBLIC "-//W3C//DTD SVG 20010904//EN"
 "http://www.w3.org/TR/2001/REC-SVG-20010904/DTD/svg10.dtd">
<svg version="1.0" xmlns="http://www.w3.org/2000/svg"
 width="800.000000pt" height="800.000000pt" viewBox="0 0 800.000000 800.000000"
 preserveAspectRatio="xMidYMid meet">
<metadata>
Created by potrace 1.11, written by Peter Selinger 2001-2013
</metadata>
<g transform="translate(0.000000,800.000000) scale(0.100000,-0.100000)"
fill="#000000" stroke="none">
<path d="M4740 6692 c-39 -25 -101 -60 -238 -138 -35 -19 -316 -182 -652 -375
-80 -46 -162 -93 -184 -104 -48 -25 -52 -34 -28 -76 11 -19 36 -63 57 -99 21
-36 48 -84 62 -108 13 -23 52 -91 87 -151 34 -59 66 -114 69 -122 4 -8 17 -30
28 -49 12 -19 82 -141 157 -270 74 -129 182 -315 238 -413 57 -98 104 -180
104 -182 0 -1 43 -76 95 -165 52 -89 95 -164 95 -166 0 -3 11 -21 23 -42 13
-20 35 -57 49 -82 14 -25 80 -139 147 -254 66 -115 121 -210 121 -212 0 -1 27
-48 60 -103 33 -56 60 -106 60 -111 0 -6 4 -10 9 -10 5 0 11 -8 14 -17 8 -25
76 -145 93 -164 8 -9 12 -18 9 -20 -2 -3 8 -18 23 -35 l27 -29 772 1 c425 0
775 3 778 6 3 3 -8 27 -24 54 -17 27 -35 59 -40 71 -8 18 -90 159 -141 243
-19 31 -74 127 -98 170 -14 25 -65 113 -113 197 -49 83 -97 167 -107 185 -11
18 -45 78 -77 133 -32 55 -65 114 -74 130 -9 17 -19 32 -23 33 -5 2 -8 8 -8
13 0 5 -18 38 -40 74 -22 36 -40 70 -40 75 0 6 -5 10 -10 10 -6 0 -9 3 -8 8 1
4 -5 18 -14 32 -17 27 -86 145 -131 225 -15 28 -30 58 -34 68 -3 9 -9 17 -12
17 -4 0 -18 21 -31 48 -13 26 -38 71 -57 100 -18 29 -33 54 -33 56 0 2 -27 50
-60 105 -33 56 -60 104 -60 108 0 3 -6 14 -14 22 -7 9 -27 41 -43 71 -17 30
-81 143 -143 250 -62 107 -121 209 -130 225 -9 17 -38 65 -64 108 -25 43 -46
80 -46 82 0 3 -25 45 -55 96 -30 50 -55 93 -55 94 0 1 -42 74 -92 161 -51 87
-99 170 -106 184 -7 14 -21 35 -30 48 l-17 22 -45 -28z"/>
<path d="M3276 5394 c-81 -46 -152 -84 -157 -84 -5 0 -9 -4 -9 -8 0 -5 -27
-22 -60 -38 -33 -16 -60 -32 -60 -35 0 -3 -16 -11 -35 -19 -19 -8 -35 -17 -35
-22 0 -4 -4 -8 -9 -8 -5 0 -76 -38 -157 -85 -81 -47 -149 -85 -151 -85 -2 0
-20 -11 -41 -23 -20 -13 -57 -35 -82 -49 -100 -56 -127 -71 -176 -101 l-52
-30 28 -51 c15 -28 42 -76 60 -106 38 -64 63 -107 98 -170 13 -25 28 -49 32
-55 4 -5 19 -31 33 -56 14 -26 112 -197 217 -380 106 -184 202 -350 213 -369
10 -19 41 -72 68 -118 27 -45 49 -84 49 -86 0 -2 28 -51 62 -108 l62 -103 1
-170 0 -170 168 -3 167 -2 1 27 c0 16 1 91 1 169 l0 141 609 -1 c335 0 612 3
615 7 8 7 3 19 -31 72 -14 22 -28 47 -32 55 -4 8 -51 91 -105 183 -54 93 -98
172 -98 178 0 5 -4 9 -10 9 -5 0 -10 4 -10 9 0 5 -23 49 -51 98 -28 48 -60
104 -71 123 -11 19 -24 40 -28 45 -4 6 -21 35 -37 65 -34 63 -268 467 -283
490 -6 8 -16 26 -22 40 -7 14 -15 27 -18 30 -3 3 -12 19 -20 35 -8 17 -17 32
-20 35 -5 5 -12 16 -58 99 -14 25 -45 79 -69 119 -24 41 -43 78 -43 83 0 5 -4
9 -8 9 -4 0 -15 15 -23 33 -26 55 -54 102 -61 105 -5 2 -8 8 -8 12 0 5 -17 37
-37 72 -58 98 -65 110 -111 191 -24 42 -46 79 -51 81 -4 3 -74 -33 -155 -80z"/>
<path d="M1965 4224 c-44 -26 -89 -52 -100 -58 -146 -83 -243 -139 -255 -147
-37 -23 -687 -394 -707 -403 -13 -6 -23 -15 -23 -20 0 -5 20 -43 44 -85 24
-42 53 -93 65 -114 12 -21 40 -71 62 -110 22 -40 46 -76 53 -82 8 -6 284 -10
785 -9 541 0 774 -3 779 -10 7 -12 11 -523 4 -543 -3 -10 -11 -8 -31 5 -57 40
-152 76 -244 93 -195 35 -406 -19 -562 -145 -250 -201 -330 -556 -191 -846 17
-36 33 -67 36 -70 3 -3 18 -24 34 -48 36 -52 114 -124 186 -171 30 -19 57 -36
60 -36 3 -1 22 -9 43 -18 39 -17 97 -34 152 -45 57 -12 229 -5 293 12 69 18
162 58 202 86 l26 18 -1 -46 0 -47 168 -2 167 -2 0 37 c1 38 1 1260 0 1593 l0
186 -169 -1 -169 -1 -26 50 c-15 28 -37 68 -50 90 -13 22 -78 135 -145 250
-66 116 -125 217 -131 225 -5 8 -37 64 -72 125 -35 60 -78 134 -95 165 -18 30
-47 81 -65 113 -18 31 -35 57 -38 57 -3 0 -41 -21 -85 -46z m443 -1803 c163
-51 276 -215 266 -386 -4 -75 -8 -89 -33 -146 -48 -107 -169 -199 -288 -218
-129 -20 -263 26 -350 122 -28 31 -64 89 -63 102 0 3 -6 18 -15 34 -8 16 -16
53 -19 82 -15 196 97 357 289 417 37 12 168 8 213 -7z"/>
<path d="M4750 2914 l0 -284 -52 29 c-152 85 -337 112 -503 74 -225 -51 -413
-213 -495 -426 -37 -94 -42 -122 -45 -243 -7 -245 107 -463 315 -598 36 -24
79 -48 95 -54 17 -6 44 -17 60 -23 59 -23 122 -32 230 -32 83 1 106 3 175 17
37 8 151 57 182 78 14 10 29 18 32 18 3 0 6 -20 6 -44 l0 -45 168 0 169 1 -1
906 -1 907 -167 1 -168 1 0 -283z m-260 -495 c122 -44 217 -147 250 -271 12
-41 15 -131 6 -173 -29 -142 -150 -266 -293 -298 -181 -42 -355 43 -436 213
-26 53 -31 79 -34 147 -3 111 24 191 94 273 33 39 131 102 167 107 10 2 26 7
35 13 22 12 167 5 211 -11z"/>
<path d="M531 2729 c-91 -23 -167 -58 -235 -106 -58 -41 -163 -149 -172 -175
-3 -10 -10 -18 -15 -18 -5 0 -9 -7 -9 -15 0 -8 -5 -15 -12 -15 -6 0 -8 -3 -5
-7 4 -3 1 -16 -8 -29 -15 -24 -53 -131 -63 -179 -9 -40 -8 -211 0 -255 11 -57
21 -94 33 -125 61 -153 155 -266 287 -347 61 -38 155 -78 193 -84 11 -1 20 -3
20 -4 0 -13 228 -18 280 -7 17 4 44 9 60 13 17 3 36 11 43 16 6 6 12 8 12 4 0
-3 33 11 73 31 39 21 75 39 80 41 4 2 7 -17 7 -42 l0 -45 168 2 167 2 0 673
c1 457 -3 672 -10 673 -5 1 -81 2 -167 3 l-158 1 -1 -25 c-1 -14 0 -37 1 -52
l1 -26 -78 39 c-153 78 -333 99 -492 58z m317 -313 c91 -33 178 -112 215 -195
24 -53 23 -50 35 -116 11 -64 -8 -175 -39 -233 -107 -198 -362 -265 -552 -145
-61 38 -105 89 -141 163 -28 60 -31 73 -31 165 1 90 4 106 30 160 48 100 140
177 250 210 52 16 178 11 233 -9z"/>
<path d="M5740 2726 c-41 -12 -93 -31 -115 -41 -55 -26 -145 -86 -145 -96 0
-5 -4 -9 -10 -9 -27 0 -132 -136 -174 -224 -48 -102 -69 -194 -69 -306 1 -271
153 -514 394 -628 194 -92 425 -90 619 6 41 20 78 38 81 40 3 1 5 -17 5 -40
l-1 -43 170 -2 170 -2 -2 671 c-1 368 -5 673 -8 677 -4 3 -78 6 -166 6 -123 1
-159 -2 -160 -12 -1 -7 -3 -26 -4 -43 -1 -16 -3 -34 -4 -40 0 -5 -22 3 -48 19
-141 86 -370 115 -533 67z m366 -327 c59 -28 90 -52 141 -112 50 -58 81 -153
78 -239 -2 -69 -22 -158 -36 -158 -5 0 -9 -9 -9 -20 0 -24 -113 -140 -155
-159 -16 -7 -38 -17 -47 -22 -19 -10 -73 -20 -127 -24 -92 -6 -224 49 -290
121 -171 185 -129 474 87 601 103 61 247 66 358 12z"/>
<path d="M7185 2729 c-44 -11 -84 -24 -89 -29 -6 -6 -16 -10 -24 -10 -40 0
-175 -121 -209 -188 -77 -150 -57 -346 46 -448 80 -79 189 -117 476 -164 169
-28 239 -63 251 -127 12 -65 -34 -121 -115 -141 -14 -4 -66 -7 -116 -7 -75 1
-99 5 -147 27 -63 29 -113 87 -124 144 -3 19 -11 34 -18 34 -83 4 -317 1 -324
-4 -19 -11 20 -149 60 -211 57 -87 168 -174 258 -200 3 -1 12 -4 20 -8 20 -7
105 -26 155 -34 52 -8 219 -7 270 1 296 47 452 206 441 451 -3 81 -22 165 -38
165 -4 0 -8 6 -8 14 0 34 -154 146 -225 163 -5 1 -35 9 -65 17 -30 8 -68 17
-85 19 -16 3 -37 7 -45 10 -8 3 -31 8 -50 11 -114 16 -242 50 -277 73 -34 22
-50 63 -44 113 3 22 62 70 103 81 23 6 75 12 114 12 118 -1 199 -50 225 -138
l13 -45 168 0 c100 0 168 4 168 10 0 34 -27 123 -52 170 -67 127 -185 209
-349 245 -90 19 -271 16 -364 -6z"/>
<path d="M3176 2066 c1 -369 2 -674 3 -677 0 -4 75 -7 166 -8 l165 0 1 289 c0
160 0 414 0 565 0 151 0 326 0 388 l-1 112 -168 1 -167 0 1 -670z"/>
</g>
</svg>
